<svg width="794" height="625" viewBox="0 0 794 625" fill="none" xmlns="http://www.w3.org/2000/svg">
<path fill-rule="evenodd" clip-rule="evenodd" d="M794 399.841C723.38 494.524 571.676 560 395.923 560C221.936 560 71.518 495.834 -4.73947e-05 402.687C29.0961 176.436 193.435 2.6582 392.567 0.00793457C393.685 0.00262451 394.803 0 395.923 0C398.703 0 401.478 0.0163574 404.246 0.0490112C601.445 4.06238 764.021 175.903 794 399.841Z" fill="#18002C"/>
<path fill-rule="evenodd" clip-rule="evenodd" d="M647 375C647 410.806 639.473 444.854 625.914 475.648C564.545 490.821 484.525 500 397 500C309.476 500 229.455 490.821 168.087 475.648C154.528 444.854 147 410.806 147 375C147 359.213 148.463 343.768 151.262 328.793C86.8971 346.927 47.0001 372.132 47.0001 400C47.0001 430.221 93.9219 457.312 168.087 475.648C176.83 495.506 188.082 514.01 201.44 530.759C178.129 526.536 156.39 521.556 136.601 515.902C102.617 506.192 71.6979 493.747 48.1961 477.871C26.3347 463.104 6.10352e-05 437.66 6.10352e-05 400C6.10352e-05 362.34 26.3347 336.896 48.1961 322.129C71.6979 306.253 102.617 293.807 136.601 284.098C146.364 281.308 156.601 278.683 167.268 276.232C205.562 187.279 294.008 125 397 125C499.992 125 588.438 187.279 626.732 276.232C637.399 278.683 647.636 281.308 657.399 284.098C691.384 293.807 722.302 306.253 745.804 322.129C767.665 336.896 794 362.34 794 400C794 437.66 767.665 463.104 745.804 477.871C722.302 493.747 691.384 506.192 657.399 515.902C637.61 521.556 615.871 526.536 592.56 530.759C605.918 514.01 617.17 495.506 625.914 475.648C700.078 457.312 747 430.221 747 400C747 372.132 707.103 346.927 642.738 328.793C645.537 343.768 647 359.213 647 375ZM592.56 530.759C546.754 588.194 476.175 625 397 625C317.825 625 247.246 588.194 201.44 530.759C258.949 541.18 326.027 547 397 547C467.973 547 535.051 541.18 592.56 530.759Z" fill="url(#paint0_linear_222_2)"/>
<path d="M566.571 121.48C576.639 114.827 589.551 124.289 586.239 135.894L576.161 171.202C575.12 174.851 575.725 178.772 577.816 181.937L598.06 212.571C604.713 222.639 595.251 235.551 583.646 232.239L548.338 222.161C544.69 221.12 540.768 221.724 537.603 223.816L506.969 244.06C496.901 250.713 483.989 241.251 487.301 229.646L497.379 194.338C498.42 190.69 497.816 186.768 495.724 183.603L475.48 152.969C468.827 142.901 478.289 129.989 489.894 133.301L525.202 143.379C528.851 144.42 532.772 143.816 535.937 141.724L566.571 121.48Z" fill="#D9D9D9"/>
<defs>
<linearGradient id="paint0_linear_222_2" x1="397" y1="125" x2="397" y2="625" gradientUnits="userSpaceOnUse">
<stop stop-color="#8819BC"/>
<stop offset="1" stop-color="#FF75BF"/>
</linearGradient>
</defs>
</svg>
